<?xml version="1.0" encoding="utf-8"?>
<!-- Generator: Adobe Illustrator 22.0.0, SVG Export Plug-In . SVG Version: 6.00 Build 0)  -->
<svg version="1.1" id="레이어_1" xmlns="http://www.w3.org/2000/svg" xmlns:xlink="http://www.w3.org/1999/xlink" x="0px"
	 y="0px" viewBox="0 0 152.3 22.7" style="enable-background:new 0 0 152.3 22.7;" xml:space="preserve">
<style type="text/css">
	.st0{fill:#BD1F25;}
	.st1{fill:#FFFFFF;}
</style>
<g>
	<path class="st0" d="M91.9,9.6l-0.7,3.1h2.3l-0.7-3.1c-0.1-0.7-0.3-1.6-0.5-2.4C92.2,8.1,92.1,9,91.9,9.6 M89.9,2.6h5.3L99.6,20
		h-4.5l-1-3.9h-3.5L89.8,20h-4.4L89.9,2.6z"/>
	<path class="st0" d="M106.1,9.4c1.5,0,2.3-0.8,2.3-1.8c0-1.2-0.7-1.6-2-1.7c-0.4,0-0.7,0-1,0.1v3.4H106.1z M106.2,16.8
		c1.4,0,2.5-0.6,2.5-2.1c0-1.5-1.2-2-2.6-2h-0.7v4.1C105.6,16.8,105.9,16.8,106.2,16.8 M101.3,19.9l-0.2,0v-17l0.2,0
		c1-0.2,2.8-0.4,4.6-0.4c2,0,3.6,0.2,4.9,1.1c1.2,0.7,1.9,2,1.9,3.5c0,1.4-0.7,2.8-2.2,3.6c1.8,0.7,2.8,2.2,2.8,4.1
		c0,1.4-0.6,2.7-1.7,3.7c-1.2,1.1-3.2,1.7-6.5,1.7C103.4,20.2,102.2,20.1,101.3,19.9"/>
	<polygon class="st0" points="79,16.2 79,2.6 74.6,2.6 74.6,20 84.6,20 84.6,16.2 	"/>
	<path class="st1" d="M73.1,19.6l-4.8-9.5l4.9-7.5H68l-3,5.5c-0.2,0.4-0.4,0.7-0.5,1.1V2.6h-4.3V20h4.3v-5.6l0.8-1.1l3.1,6.7h5
		L73.1,19.6z"/>
	<polygon class="st1" points="51.9,16.3 51.9,12.9 57,12.9 57,9.2 51.9,9.2 51.9,6.4 57.3,6.4 57.3,2.6 47.6,2.6 47.6,20 57.7,20 
		57.7,16.3 	"/>
	<polygon class="st1" points="33.6,2.6 33.6,6.5 37.4,6.5 37.4,20 41.8,20 41.8,6.5 45.6,6.5 45.6,2.6 	"/>
	<path class="st1" d="M17.5,19.7l-1-17.1h-5.1L9.9,8.3c-0.4,1.6-0.8,3.3-1.1,4.9c-0.3-1.6-0.7-3.3-1.1-4.9L6.3,2.6H1.2L0,20h4
		l0.3-6.2c0.1-1.2,0.1-2.7,0.2-4.2C4.7,11,5,12.4,5.3,13.5l1.6,6.2h3.3l1.7-6.2c0.3-1.1,0.7-2.5,1-4c0,1.5,0.1,3,0.1,4.3l0.2,6.3
		h4.1L17.5,19.7z"/>
	<path class="st1" d="M20.5,18.3C19.5,17,19,15.1,19,12.7v-10h4.4v10.4c0,2.6,0.8,3.5,2,3.5c1.3,0,2-0.8,2-3.5V2.7h4.4v10
		c0,2.4-0.6,4.3-1.7,5.6c-1.1,1.3-2.8,1.9-4.8,1.9h0C23.2,20.3,21.6,19.6,20.5,18.3"/>
</g>
<g>
	<polygon class="st1" points="129.6,11.3 135.2,5.7 129.5,0 118.2,11.3 129.5,22.7 135.2,16.9 	"/>
	<polygon class="st1" points="140.9,11.3 135.3,5.7 141,0 152.3,11.3 141,22.7 135.3,16.9 	"/>
</g>
</svg>
